<svg xmlns="http://www.w3.org/2000/svg" width="900" height="1125" viewBox="0 0 900 1125"><rect width="900" height="1125" rx="32" fill="#F7FAF8"/><rect x="18" y="18" width="864" height="1089" rx="28" fill="none" stroke="#0D4A35" stroke-width="5"/><style>.t{font-family:Arial,sans-serif;fill:#0D4A35}.h{font-weight:700}.m{font-size:25px}.s{font-size:21px}</style><text x="450" y="85" text-anchor="middle" class="t h" font-size="60">DRIBBLE</text><text x="450" y="125" text-anchor="middle" class="t" font-size="26">Fixer puis éliminer</text><circle cx="520" cy="275" r="42" fill="#F0C49A" stroke="#0D4A35" stroke-width="4"/><path d="M480 325 L560 325 L590 505 L460 505 Z" fill="#0F6847"/><line x1="495" y1="505" x2="455" y2="630" stroke="#111" stroke-width="24"/><line x1="550" y1="505" x2="605" y2="620" stroke="#111" stroke-width="24"/><circle cx="610" cy="635" r="34" fill="#fff" stroke="#111" stroke-width="3"/><circle cx="275" cy="360" r="38" fill="#F0C49A" stroke="#555" stroke-width="4"/><path d="M235 405 L315 405 L340 560 L220 560 Z" fill="#D9D9D9"/><line x1="245" y1="560" x2="220" y2="655" stroke="#555" stroke-width="22"/><line x1="310" y1="560" x2="345" y2="655" stroke="#555" stroke-width="22"/><path d="M600 650 Q690 660 745 585" fill="none" stroke="#1B8D50" stroke-width="10"/><polygon points="745,585 716,595 739,616" fill="#1B8D50"/><path d="M470 390 Q410 340 330 355" fill="none" stroke="#1B8D50" stroke-width="6" stroke-dasharray="12 9"/><text x="65" y="250" class="t h s">FIXER L’ADVERSAIRE</text><text x="65" y="290" class="t s">observer ses appuis</text><text x="565" y="250" class="t h s">CENTRE DE GRAVITÉ BAS</text><text x="565" y="290" class="t s">feinter avec le corps</text><text x="65" y="710" class="t h s">CHANGER DE DIRECTION VITE</text><text x="535" y="710" class="t h s">ACCÉLÉRER APRÈS</text><rect x="55" y="760" width="790" height="280" rx="24" fill="#fff" stroke="#0D4A35" stroke-width="4"/><rect x="55" y="760" width="260" height="58" rx="20" fill="#0D4A35"/><text x="185" y="799" text-anchor="middle" fill="#fff" font-family="Arial" font-weight="700" font-size="32">MÉMOS</text><g class="t m"><text x="85" y="860">1  Fixer l’adversaire</text><text x="85" y="920">2  Centre de gravité bas</text><text x="85" y="980">3  Feinter avec le corps</text><text x="480" y="860">4  Changer de direction</text><text x="480" y="920">5  Accélérer après le geste</text><text x="480" y="980">6  Protéger la sortie</text></g><text x="450" y="1080" text-anchor="middle" class="t h" font-size="24">ENFANT + ADULTE</text></svg>