<svg xmlns="http://www.w3.org/2000/svg" width="900" height="1125" viewBox="0 0 900 1125"><rect width="900" height="1125" rx="32" fill="#F7FAF8"/><rect x="18" y="18" width="864" height="1089" rx="28" fill="none" stroke="#0D4A35" stroke-width="5"/><style>.t{font-family:Arial,sans-serif;fill:#0D4A35}.h{font-weight:700}.m{font-size:25px}.s{font-size:21px}</style><text x="450" y="85" text-anchor="middle" class="t h" font-size="58">LA PASSE</text><text x="450" y="125" text-anchor="middle" class="t" font-size="26">Précision et bon timing</text><circle cx="390" cy="285" r="43" fill="#F0C49A" stroke="#0D4A35" stroke-width="4"/><path d="M350 330 L430 330 L470 515 L340 515 Z" fill="#0F6847"/><line x1="370" y1="515" x2="340" y2="650" stroke="#111" stroke-width="24"/><line x1="430" y1="515" x2="535" y2="590" stroke="#111" stroke-width="24"/><circle cx="560" cy="600" r="35" fill="#fff" stroke="#111" stroke-width="3"/><circle cx="730" cy="470" r="28" fill="#238A35"/><path d="M595 590 Q670 560 720 490" fill="none" stroke="#1B8D50" stroke-width="9"/><polygon points="720,490 694,505 720,520" fill="#1B8D50"/><text x="65" y="260" class="t h s">CORPS ORIENTÉ VERS LA CIBLE</text><text x="65" y="305" class="t s">pied d’appui à côté du ballon</text><text x="565" y="260" class="t h s">CHEVILLE VERROUILLÉE</text><text x="565" y="305" class="t s">surface de pied adaptée</text><text x="65" y="700" class="t h s">DOSAGE SELON LA DISTANCE</text><text x="565" y="700" class="t h s">SUIVRE SON GESTE</text><rect x="55" y="760" width="790" height="280" rx="24" fill="#fff" stroke="#0D4A35" stroke-width="4"/><rect x="55" y="760" width="260" height="58" rx="20" fill="#0D4A35"/><text x="185" y="799" text-anchor="middle" fill="#fff" font-family="Arial" font-weight="700" font-size="32">MÉMOS</text><g class="t m"><text x="85" y="860">1  Pied d’appui à côté</text><text x="85" y="920">2  Cheville verrouillée</text><text x="85" y="980">3  Surface de pied adaptée</text><text x="480" y="860">4  Corps vers la cible</text><text x="480" y="920">5  Dosage de la passe</text><text x="480" y="980">6  Suivre son geste</text></g><text x="450" y="1080" text-anchor="middle" class="t h" font-size="24">ENFANT + ADULTE</text></svg>